# This file uses centimeters as units for non-parametric coordinates.

mtllib ConveyorBeltSingle.mtl
g default
v 2.478035 0.106696 0.500000
v 2.425008 0.125000 0.500000
v 2.500000 0.062506 0.500000
v 2.500000 0.062506 -0.500000
v 2.425008 0.125000 -0.500000
v 2.478035 0.106696 -0.500000
v 2.478035 -0.106696 0.500000
v 2.500000 -0.062506 0.500000
v 2.425008 -0.125000 0.500000
v 2.478035 -0.106696 -0.500000
v 2.425008 -0.125000 -0.500000
v 2.500000 -0.062506 -0.500000
v 1.518304 0.106696 0.500000
v 1.500000 0.062506 0.500000
v 1.562494 0.125000 0.500000
v 1.500000 0.062506 -0.500000
v 1.518304 0.106696 -0.500000
v 1.562494 0.125000 -0.500000
v 1.518304 -0.106696 0.500000
v 1.562494 -0.125000 0.500000
v 1.500000 -0.062506 0.500000
v 1.518304 -0.106696 -0.500000
v 1.500000 -0.062506 -0.500000
v 1.562494 -0.125000 -0.500000
vt 0.875000 0.062494
vt 0.875000 0.187506
vt 0.625000 0.062494
vt 0.625000 0.250000
vt 0.875000 0.250000
vt 0.625000 0.000000
vt 0.625000 1.000000
vt 0.875000 0.000000
vt 0.606252 0.500000
vt 0.606252 1.000000
vt 0.125000 0.187506
vt 0.375000 0.187506
vt 0.390623 0.500000
vt 0.390623 1.000000
vt 0.125000 0.062494
vt 0.390623 0.000000
vt 0.606252 0.000000
vt 0.625000 0.187506
vt 0.606252 0.250000
vt 0.390623 0.250000
vt 0.375000 0.062494
vt 0.375000 0.687506
vt 0.375000 0.562494
vt 0.625000 0.500000
vt 0.625000 0.562494
vt 0.625000 0.687506
vt 0.625000 0.750000
vt 0.606252 0.750000
vt 0.390623 0.750000
vt 0.375000 0.250000
vt 0.375000 0.500000
vt 0.125000 0.250000
vt 0.375000 0.000000
vt 0.375000 1.000000
vt 0.125000 0.000000
vt 0.375000 0.750000
vn -0.020183 0.999796 0.000000
vn -0.020183 0.999796 0.000000
vn 0.019989 0.999800 0.000000
vn 0.019989 0.999800 0.000000
vn -0.020183 -0.999796 0.000000
vn -0.020183 -0.999796 0.000000
vn 0.019989 -0.999800 0.000000
vn 0.019989 -0.999800 0.000000
vn 0.991679 -0.128734 0.000000
vn 0.991679 -0.128734 0.000000
vn 0.991679 0.128734 0.000000
vn 0.991679 0.128734 0.000000
vn -0.994200 -0.107551 0.000000
vn -0.994200 -0.107551 0.000000
vn -0.994200 0.107551 0.000000
vn -0.994200 0.107551 0.000000
vn 0.326287 0.945271 0.000000
vn 0.326287 0.945271 0.000000
vn 0.895479 0.445103 0.000000
vn 0.895479 0.445103 0.000000
vn 0.895479 -0.445103 0.000000
vn 0.895479 -0.445103 0.000000
vn 0.326287 -0.945271 0.000000
vn 0.326287 -0.945271 0.000000
vn -0.923879 0.382685 0.000000
vn -0.923879 0.382685 0.000000
vn -0.382684 0.923879 0.000000
vn -0.382684 0.923879 0.000000
vn -0.382684 -0.923879 0.000000
vn -0.382684 -0.923879 0.000000
vn -0.923879 -0.382685 0.000000
vn -0.923879 -0.382685 0.000000
vn -0.000000 0.000000 1.000000
vn -0.000000 0.000000 1.000000
vn -0.000000 0.000000 1.000000
vn -0.000000 0.000000 1.000000
vn -0.000000 0.000000 1.000000
vn -0.000000 0.000000 1.000000
vn -0.000000 0.000000 1.000000
vn -0.000000 0.000000 1.000000
vn -0.000000 0.000000 1.000000
vn -0.000000 0.000000 1.000000
vn -0.000000 0.000000 1.000000
vn -0.000000 0.000000 1.000000
vn 0.000000 0.000000 -1.000000
vn 0.000000 0.000000 -1.000000
vn 0.000000 0.000000 -1.000000
vn 0.000000 0.000000 -1.000000
vn 0.000000 0.000000 -1.000000
vn 0.000000 0.000000 -1.000000
vn 0.000000 0.000000 -1.000000
vn 0.000000 0.000000 -1.000000
vn 0.000000 0.000000 -1.000000
vn 0.000000 0.000000 -1.000000
vn 0.000000 0.000000 -1.000000
vn 0.000000 0.000000 -1.000000
s 1
g Single
usemtl initialShadingGroup
f 18/13/1 15/20/2 2/19/3 5/9/4
s 2
f 20/14/5 24/29/6 11/28/7 9/10/8
s 3
f 8/3/9 12/1/10 4/2/11 3/18/12
s 4
f 23/15/13 21/21/14 14/12/15 16/11/16
s 1
f 2/19/3 1/4/17 6/24/18 5/9/4
s 3
f 1/4/19 3/18/12 4/2/11 6/5/20
f 8/3/9 7/6/21 10/8/22 12/1/10
s 2
f 7/7/23 9/10/8 11/28/7 10/27/24
s 4
f 14/12/15 13/30/25 17/32/26 16/11/16
s 1
f 13/30/27 15/20/2 18/13/1 17/31/28
s 2
f 20/14/5 19/34/29 22/36/30 24/29/6
s 4
f 19/33/31 21/21/14 23/15/13 22/35/32
s off
f 19/33/33 20/16/34 9/17/35 7/6/36 8/3/37 3/18/38 1/4/39 2/19/40 15/20/41 13/30/42 14/12/43 21/21/44
f 22/36/45 23/22/46 16/23/47 17/31/48 18/13/49 5/9/50 6/24/51 4/25/52 12/26/53 10/27/54 11/28/55 24/29/56
