# This file uses centimeters as units for non-parametric coordinates.

mtllib ConveyorBeltEnd.mtl
g default
v 3.500000 -0.125000 0.500000
v 3.500000 0.125000 0.500000
v 3.500000 0.125000 -0.500000
v 3.500000 -0.125000 -0.500000
v 4.478035 0.106696 0.500000
v 4.425008 0.125000 0.500000
v 4.500000 0.062506 0.500000
v 4.500000 0.062506 -0.500000
v 4.425008 0.125000 -0.500000
v 4.478035 0.106696 -0.500000
v 4.478035 -0.106696 0.500000
v 4.500000 -0.062506 0.500000
v 4.425008 -0.125000 0.500000
v 4.478035 -0.106696 -0.500000
v 4.425008 -0.125000 -0.500000
v 4.500000 -0.062506 -0.500000
vt 0.375000 0.250000
vt 0.125000 0.000000
vt 0.125000 0.250000
vt 0.375000 0.500000
vt 0.875000 0.062494
vt 0.606252 1.000000
vt 0.375000 1.000000
vt 0.606252 0.250000
vt 0.875000 0.187506
vt 0.625000 0.062494
vt 0.606252 0.750000
vt 0.625000 0.187506
vt 0.375000 0.000000
vt 0.606252 0.000000
vt 0.375000 0.750000
vt 0.606252 0.500000
vt 0.625000 0.562494
vt 0.625000 0.687506
vt 0.625000 0.250000
vt 0.875000 0.250000
vt 0.625000 0.500000
vt 0.625000 0.000000
vt 0.625000 1.000000
vt 0.625000 0.750000
vt 0.875000 0.000000
vn 0.000000 1.000000 0.000000
vn 0.018712 0.999825 0.000000
vn 0.018712 0.999825 0.000000
vn 0.000000 1.000000 0.000000
vn 0.000000 -1.000000 0.000000
vn 0.018712 -0.999825 0.000000
vn 0.018712 -0.999825 0.000000
vn 0.000000 -1.000000 0.000000
vn 0.991679 -0.128734 0.000000
vn 0.991679 -0.128734 0.000000
vn 0.991679 0.128734 0.000000
vn 0.991679 0.128734 0.000000
vn -1.000000 0.000000 0.000000
vn -1.000000 0.000000 0.000000
vn -1.000000 0.000000 0.000000
vn -1.000000 0.000000 0.000000
vn 0.326287 0.945271 0.000000
vn 0.326287 0.945271 0.000000
vn 0.895479 0.445103 0.000000
vn 0.895479 0.445103 0.000000
vn 0.895479 -0.445103 0.000000
vn 0.895479 -0.445103 0.000000
vn 0.326287 -0.945271 0.000000
vn 0.326287 -0.945271 0.000000
vn 0.000000 0.000000 1.000000
vn 0.000000 0.000000 1.000000
vn 0.000000 0.000000 1.000000
vn 0.000000 0.000000 1.000000
vn 0.000000 0.000000 1.000000
vn 0.000000 0.000000 1.000000
vn 0.000000 0.000000 1.000000
vn 0.000000 0.000000 1.000000
vn 0.000000 0.000000 -1.000000
vn 0.000000 0.000000 -1.000000
vn 0.000000 0.000000 -1.000000
vn 0.000000 0.000000 -1.000000
vn 0.000000 0.000000 -1.000000
vn 0.000000 0.000000 -1.000000
vn 0.000000 0.000000 -1.000000
vn 0.000000 0.000000 -1.000000
s 1
g End
usemtl initialShadingGroup
f 2/1/1 6/8/2 9/16/3 3/4/4
s 2
f 4/15/5 15/11/6 13/6/7 1/7/8
s 3
f 12/10/9 16/5/10 8/9/11 7/12/12
s off
f 4/2/13 1/13/14 2/1/15 3/3/16
s 1
f 6/8/2 5/19/17 10/21/18 9/16/3
s 3
f 5/19/19 7/12/12 8/9/11 10/20/20
f 12/10/9 11/22/21 14/25/22 16/5/10
s 2
f 11/23/23 13/6/7 15/11/6 14/24/24
s off
f 11/22/25 12/10/26 7/12/27 5/19/28 6/8/29 2/1/30 1/13/31 13/14/32
f 14/24/33 15/11/34 4/15/35 3/4/36 9/16/37 10/21/38 8/17/39 16/18/40
