# This file uses centimeters as units for non-parametric coordinates.

mtllib ConveyorBeltPort.mtl
g default
v 5.500000 -0.125000 0.500000
v 5.500000 0.125000 0.500000
v 5.500000 0.125000 -0.500000
v 5.500000 -0.125000 -0.500000
v 6.478035 0.106696 0.500000
v 6.425008 0.125000 0.500000
v 6.500000 0.062506 0.500000
v 6.500000 0.062506 -0.500000
v 6.425008 0.125000 -0.500000
v 6.478035 0.106696 -0.500000
v 6.478035 -0.106696 0.500000
v 6.500000 -0.062506 0.500000
v 6.425008 -0.125000 0.500000
v 6.478035 -0.106696 -0.500000
v 6.425008 -0.125000 -0.500000
v 6.500000 -0.062506 -0.500000
v 5.592501 0.125000 0.500000
v 5.592501 0.125000 -0.500000
v 5.500000 0.425000 0.500000
v 5.542500 0.425000 0.500000
v 5.542500 0.425000 -0.500000
v 5.500000 0.425000 -0.500000
v 5.500000 0.125000 0.400000
v 5.500000 -0.125000 0.400000
v 6.425008 -0.125000 0.400000
v 6.478035 -0.106696 0.400000
v 6.500000 -0.062506 0.400000
v 6.500000 0.062506 0.400000
v 6.478035 0.106696 0.400000
v 6.425008 0.125000 0.400000
v 5.592501 0.125000 0.400000
v 5.542500 0.425000 0.400000
v 5.500000 0.425000 0.400000
v 5.500000 -0.125000 -0.410000
v 5.500000 0.125000 -0.410000
v 5.500000 0.425000 -0.410000
v 5.542500 0.425000 -0.410000
v 5.592501 0.125000 -0.410000
v 6.425008 0.125000 -0.410000
v 6.478035 0.106696 -0.410000
v 6.500000 0.062506 -0.410000
v 6.500000 -0.062506 -0.410000
v 6.478035 -0.106696 -0.410000
v 6.425008 -0.125000 -0.410000
vt 0.375000 0.250000
vt 0.125000 0.000000
vt 0.125000 0.250000
vt 0.375000 0.500000
vt 0.875000 0.062494
vt 0.606252 1.000000
vt 0.375000 1.000000
vt 0.606252 0.250000
vt 0.875000 0.187506
vt 0.625000 0.062494
vt 0.606252 0.750000
vt 0.625000 0.187506
vt 0.375000 0.000000
vt 0.606252 0.000000
vt 0.375000 0.750000
vt 0.606252 0.500000
vt 0.625000 0.562494
vt 0.625000 0.687506
vt 0.625000 0.250000
vt 0.875000 0.250000
vt 0.625000 0.500000
vt 0.625000 0.000000
vt 0.625000 1.000000
vt 0.625000 0.750000
vt 0.875000 0.000000
vt 0.398125 0.250000
vt 0.398125 0.500000
vt 0.375000 0.250000
vt 0.398125 0.250000
vt 0.398125 0.500000
vt 0.375000 0.500000
vt 0.349994 0.249989
vt 0.374986 0.275006
vt 0.350000 0.000000
vt 0.375000 0.975000
vt 0.606252 0.975000
vt 0.650000 0.000000
vt 0.625000 0.975000
vt 0.650000 0.062494
vt 0.650000 0.187506
vt 0.625000 0.275000
vt 0.650000 0.250000
vt 0.606252 0.275000
vt 0.398125 0.275000
vt 0.398125 0.275000
vt 0.375222 0.275002
vt 0.147500 0.000000
vt 0.375000 0.772500
vt 0.147505 0.249988
vt 0.374984 0.477494
vt 0.375245 0.477498
vt 0.398125 0.477500
vt 0.398125 0.477500
vt 0.606252 0.477500
vt 0.625000 0.477500
vt 0.852500 0.250000
vt 0.852500 0.187506
vt 0.852500 0.062494
vt 0.852500 0.000000
vt 0.625000 0.772500
vt 0.606252 0.772500
vt 0.000000 0.000000
vt 1.000000 0.000000
vt 0.954329 2.844654
vt -0.021557 1.349337
vt 0.000000 0.000000
vt 1.000000 0.000000
vt 1.021474 1.343528
vt 0.045311 2.821422
vt 0.000000 0.000000
vt 1.000000 0.000000
vt 0.999879 4.479120
vt 0.000076 4.391205
vn 0.000000 1.000000 0.000000
vn 0.000000 1.000000 0.000000
vn 0.000000 1.000000 0.000000
vn 0.000000 1.000000 0.000000
vn 0.000000 -1.000000 0.000000
vn 0.018712 -0.999825 0.000000
vn 0.018712 -0.999825 0.000000
vn 0.000000 -1.000000 0.000000
vn 0.991679 -0.128735 0.000000
vn 0.991679 -0.128735 0.000000
vn 0.991679 0.128735 0.000000
vn 0.991679 0.128735 0.000000
vn -1.000000 0.000000 0.000000
vn -1.000000 0.000000 0.000000
vn -1.000000 0.000000 0.000000
vn -1.000000 0.000000 0.000000
vn 0.020666 0.999786 0.000000
vn 0.326290 0.945270 0.000000
vn 0.326290 0.945270 0.000000
vn 0.020666 0.999787 0.000000
vn 0.895477 0.445107 0.000000
vn 0.895477 0.445107 0.000000
vn 0.895477 -0.445107 0.000000
vn 0.895477 -0.445107 0.000000
vn 0.326290 -0.945270 0.000000
vn 0.326290 -0.945270 0.000000
vn 0.000000 0.000000 1.000000
vn 0.000000 0.000000 1.000000
vn 0.000000 0.000000 1.000000
vn 0.000000 0.000000 1.000000
vn 0.000000 0.000000 1.000000
vn 0.000000 0.000000 1.000000
vn 0.000000 0.000000 1.000000
vn 0.000000 0.000000 1.000000
vn 0.000000 0.000000 1.000000
vn 0.000000 0.000000 -1.000000
vn 0.000000 0.000000 -1.000000
vn 0.000000 0.000000 -1.000000
vn 0.000000 0.000000 -1.000000
vn 0.000000 0.000000 -1.000000
vn 0.000000 0.000000 -1.000000
vn 0.000000 0.000000 -1.000000
vn 0.000000 0.000000 -1.000000
vn 0.000000 0.000000 -1.000000
vn 0.000000 1.000000 0.000000
vn 0.000000 1.000000 0.000000
vn 0.000000 0.000000 1.000000
vn 0.000000 0.000000 1.000000
vn 0.000000 0.000000 1.000000
vn 0.000000 0.000000 1.000000
vn 0.986394 0.164400 0.000000
vn 0.986394 0.164400 0.000000
vn 0.986394 0.164400 0.000000
vn 0.986394 0.164400 0.000000
vn 0.000000 0.000000 -1.000000
vn 0.000000 0.000000 -1.000000
vn 0.000000 0.000000 -1.000000
vn 0.000000 0.000000 -1.000000
vn -1.000000 0.000000 0.000000
vn -1.000000 0.000000 0.000000
vn -1.000000 0.000000 0.000000
vn -1.000000 0.000000 0.000000
vn -1.000000 0.000000 0.000000
vn -1.000000 0.000000 0.000000
vn -1.000000 0.000000 0.000000
vn -1.000000 0.000000 0.000000
vn 0.000000 -1.000000 0.000000
vn 0.018712 -0.999825 0.000000
vn 0.018712 -0.999825 0.000000
vn 0.000000 -1.000000 0.000000
vn 0.326290 -0.945270 0.000000
vn 0.326290 -0.945270 0.000000
vn 0.991679 -0.128735 0.000000
vn 0.895477 -0.445107 0.000000
vn 0.895477 -0.445107 0.000000
vn 0.991679 -0.128735 0.000000
vn 0.991679 0.128735 0.000000
vn 0.991679 0.128735 0.000000
vn 0.895477 0.445107 0.000000
vn 0.895477 0.445107 0.000000
vn 0.020666 0.999786 0.000000
vn 0.326290 0.945270 0.000000
vn 0.326290 0.945270 0.000000
vn 0.020666 0.999787 0.000000
vn 0.000000 1.000000 0.000000
vn 0.000000 1.000000 0.000000
vn 0.986394 0.164400 0.000000
vn 0.986394 0.164400 0.000000
vn 0.986394 0.164400 0.000000
vn 0.986394 0.164400 0.000000
vn 0.000000 1.000000 0.000000
vn 0.000000 1.000000 0.000000
vn 0.000000 1.000000 0.000000
vn 0.000000 1.000000 0.000000
vn -1.000000 0.000000 0.000000
vn -1.000000 0.000000 0.000000
vn -1.000000 0.000000 0.000000
vn -1.000000 0.000000 0.000000
vn -1.000000 0.000000 0.000000
vn -1.000000 0.000000 0.000000
vn -1.000000 0.000000 0.000000
vn -1.000000 0.000000 0.000000
vn 0.000000 0.000000 -1.000000
vn 0.000000 0.000000 -1.000000
vn 0.000000 0.000000 -1.000000
vn 0.000000 0.000000 -1.000000
vn 0.000000 0.000000 1.000000
vn 0.000000 0.000000 1.000000
vn 0.000000 0.000000 1.000000
vn 0.000000 0.000000 1.000000
vn 0.000000 1.000000 0.000000
vn 0.000000 1.000000 0.000000
s off
g Port
usemtl initialShadingGroup
f 19/28/1 20/29/2 32/45/3 33/46/4
s 1
f 24/35/5 25/36/6 13/6/7 1/7/8
s 2
f 12/10/9 27/39/10 28/40/11 7/12/12
s 3
f 23/32/13 24/34/14 1/13/15 2/1/16
s 4
f 6/8/17 5/19/18 29/41/19 30/43/20
s 2
f 5/19/21 7/12/12 28/40/11 29/42/22
f 12/10/9 11/22/23 26/37/24 27/39/10
s 1
f 11/23/25 13/6/7 25/36/6 26/38/26
s off
f 11/22/27 12/10/28 7/12/29 5/19/30 6/8/31 17/26/32 2/1/33 1/13/34 13/14/35
f 14/24/36 15/11/37 4/15/38 3/4/39 18/27/40 9/16/41 10/21/42 8/17/43 16/18/44
s 4
f 30/43/20 31/44/45 17/26/46 6/8/17
s off
f 2/1/47 17/26/48 20/29/49 19/28/50
f 17/26/51 31/44/52 32/45/53 20/29/54
f 18/27/55 3/4/56 22/31/57 21/30/58
f 33/46/59 23/33/60 2/1/61 19/28/62
s 3
f 4/2/63 34/47/64 35/49/65 3/3/66
s 1
f 4/15/67 15/11/68 44/61/69 34/48/70
f 43/60/71 44/61/69 15/11/68 14/24/72
s 2
f 42/58/73 43/59/74 14/25/75 16/5/76
f 41/57/77 42/58/73 16/5/76 8/9/78
f 40/56/79 41/57/77 8/9/78 10/20/80
s 4
f 39/54/81 40/55/82 10/21/83 9/16/84
f 18/27/85 38/53/86 39/54/81 9/16/84
s off
f 37/52/87 38/53/88 18/27/89 21/30/90
f 36/51/91 37/52/92 21/30/93 22/31/94
f 3/4/95 35/50/96 36/51/97 22/31/98
s 3
f 35/49/65 34/47/64 24/34/14 23/32/13
s off
f 36/51/99 35/50/100 23/33/101 33/46/102
s 4
f 39/54/81 38/53/86 31/44/45 30/43/20
f 30/43/20 29/41/19 40/55/82 39/54/81
s 2
f 29/42/22 28/40/11 41/57/77 40/56/79
f 28/40/11 27/39/10 42/58/73 41/57/77
f 27/39/10 26/37/24 43/59/74 42/58/73
s 1
f 26/38/26 25/36/6 44/61/69 43/60/71
f 34/48/70 44/61/69 25/36/6 24/35/5
s off
f 32/62/103 31/63/104 23/64/105 33/65/106
f 38/66/107 37/67/108 36/68/109 35/69/110
s 4
f 31/70/45 38/71/86 35/72/111 23/73/112
