# Blender 5.1.2
# www.blender.org
mtllib ConveyorCornerRight.mtl
o Cube
v 0.500000 -0.250000 -0.500000
v -0.500000 -0.250000 0.500000
v -0.500000 -0.250000 -0.500000
v 0.500000 -0.375000 0.500000
v 0.375000 -0.250000 -0.500000
v 0.250000 -0.375000 -0.500000
v -0.500000 -0.375000 0.250000
v -0.500000 -0.250000 0.375000
v -0.250000 -0.375000 -0.500000
v -0.375000 -0.250000 -0.500000
v -0.500000 -0.250000 -0.375000
v -0.500000 -0.375000 -0.250000
v -0.500000 -0.375000 -0.500000
v -0.500000 -0.500000 -0.375000
v -0.375000 -0.500000 -0.500000
v 0.500000 -0.250000 0.500000
v -0.500000 -0.500000 0.375000
v -0.500000 -0.375000 0.500000
v 0.500000 -0.375000 -0.500000
v 0.375000 -0.500000 -0.500000
v 0.375000 -0.500000 0.375000
v 0.250000 -0.375000 0.250000
v -0.250000 -0.375000 -0.250000
v 0.375000 -0.250000 0.375000
v -0.375000 -0.250000 -0.375000
vn 0.0000 -0.0000 -1.0000
vn -1.0000 -0.0000 -0.0000
vn -0.5774 -0.5774 -0.5773
vn 0.7071 -0.7071 -0.0000
vn 0.0000 -0.7071 0.7071
vn 1.0000 -0.0000 -0.0000
vn 0.0000 -1.0000 -0.0000
vn 0.0000 -0.0000 1.0000
vn 0.0000 1.0000 -0.0000
vn 0.0000 0.7071 -0.7071
vn -0.7071 0.7071 -0.0000
vn 0.0000 0.7071 0.7071
vn 0.7071 0.7071 -0.0000
vt 0.500000 0.437500
vt 0.562500 0.375000
vt 0.625000 0.437500
vt 0.500000 0.062500
vt 0.625000 0.062500
vt 0.562500 0.125000
vt 0.562500 -0.000000
vt 0.562500 0.500000
vt 0.625000 0.562500
vt 0.500000 0.562500
vt 0.562500 1.000000
vt 0.500000 0.937500
vt 0.625000 0.937500
vt 0.500000 1.000000
vt 0.500000 0.500000
vt 0.500000 -0.000000
vt 0.562500 0.875000
vt 0.562500 0.625000
vt 0.500000 0.000000
vt 0.500000 0.062500
vt 0.437500 0.000000
vt 0.687500 0.500000
vt 0.687500 0.000000
vt 0.750000 0.062500
vt 0.062500 0.437500
vt 0.000000 0.500000
vt 0.062500 0.000000
vt 0.625000 0.500000
vt 0.625000 0.000000
vt 0.500000 0.437500
vt 0.625000 1.000000
vt 0.625000 0.500000
vt 0.687500 1.000000
vt 0.687500 0.500000
vt 0.000000 0.000000
vt 0.500000 0.500000
vt 0.375000 0.875000
vt 0.125000 0.625000
vt 0.500000 0.625000
vt 0.500000 0.875000
vt 0.375000 1.000000
vt 0.125000 1.000000
vt 0.500000 0.562500
vt 0.062500 0.562500
vt 0.500000 0.500000
vt 0.000000 0.500000
vt 0.000000 1.000000
vt 0.062500 1.000000
vt 0.750000 0.437500
vt 0.750000 -0.000000
vt 0.812500 0.375000
vt 0.750000 0.500000
vt 0.750000 0.437500
vt 0.812500 0.500000
vt 0.812500 0.437500
vt 0.750000 0.739277
vt 0.750000 0.650888
vt 0.794194 0.695082
vt 0.750000 0.562500
vt 0.838388 0.650888
vt 0.750000 0.562500
vt 0.838388 0.562500
vt 0.437500 0.937500
s 0
usemtl ConveyorMtl
f 10/1/1 9/2/1 15/3/1
f 5/4/1 20/5/1 6/6/1
f 20/5/1 5/4/1 19/7/1
f 13/8/1 10/1/1 15/3/1
f 13/8/2 14/9/2 11/10/2
f 18/11/2 8/12/2 17/13/2
f 2/14/2 8/12/2 18/11/2
f 11/10/2 3/15/2 13/8/2
f 10/1/1 13/8/1 3/15/1
f 1/16/1 19/7/1 5/4/1
f 6/6/1 20/5/1 9/2/1
f 20/5/1 15/3/1 9/2/1
f 8/12/2 7/17/2 17/13/2
f 11/10/2 14/9/2 12/18/2
f 14/9/2 17/13/2 12/18/2
f 12/18/2 17/13/2 7/17/2
f 13/19/3 15/20/3 14/21/3
f 19/22/4 4/23/4 21/24/4
f 21/25/5 4/26/5 17/27/5
f 1/28/6 16/29/6 4/23/6
f 15/20/7 21/25/7 14/21/7
f 20/30/7 21/25/7 15/20/7
f 21/25/7 17/27/7 14/21/7
f 16/31/8 2/32/8 4/33/8
f 18/34/8 4/33/8 2/32/8
f 4/23/6 19/22/6 1/28/6
f 18/35/5 17/27/5 4/26/5
f 20/30/4 19/36/4 21/25/4
f 23/37/9 22/38/9 6/39/9
f 6/39/9 9/40/9 23/37/9
f 12/41/9 7/42/9 23/37/9
f 22/38/9 23/37/9 7/42/9
f 5/43/9 24/44/9 1/45/9
f 1/45/9 24/44/9 16/46/9
f 2/47/9 16/46/9 24/44/9
f 8/48/9 2/47/9 24/44/9
f 8/48/10 22/38/10 7/42/10
f 24/44/10 22/38/10 8/48/10
f 24/49/11 5/50/11 22/51/11
f 6/39/11 22/38/11 5/43/11
f 10/52/9 3/53/9 25/54/9
f 11/55/9 25/54/9 3/53/9
f 12/56/12 25/57/12 11/58/12
f 10/52/13 25/54/13 9/59/13
f 23/60/13 9/61/13 25/62/13
f 23/37/12 25/63/12 12/41/12
