# Blender 5.1.2
# www.blender.org
mtllib ConveyorUp.mtl
o Cube
v 0.250000 -0.250000 0.500000
v -0.500000 -0.250000 0.500000
v 0.250000 -0.250000 -0.500000
v -0.500000 -0.250000 -0.500000
v 0.250000 -0.250000 0.375000
v 0.375000 -0.375000 0.250000
v -0.500000 -0.375000 0.250000
v -0.500000 -0.250000 0.375000
v 0.375000 -0.375000 -0.250000
v 0.250000 -0.250000 -0.375000
v -0.500000 -0.250000 -0.375000
v -0.500000 -0.375000 -0.250000
v -0.500000 -0.375000 -0.500000
v -0.500000 -0.500000 -0.375000
v 0.375000 -0.375000 -0.500000
v -0.500000 -0.500000 0.375000
v -0.500000 -0.375000 0.500000
v 0.375000 -0.375000 0.500000
v 0.250000 0.500000 0.500000
v 0.250000 0.500000 -0.500000
v 0.250000 0.500000 0.375000
v 0.375000 0.500000 0.250000
v 0.375000 0.500000 -0.250000
v 0.250000 0.500000 -0.375000
v 0.500000 0.500000 -0.375000
v 0.375000 0.500000 -0.500000
v 0.375000 0.500000 0.500000
v 0.500000 0.500000 0.375000
v 0.500000 -0.375000 -0.375000
v 0.500000 -0.375000 0.375000
v 0.375000 -0.500000 -0.375000
v 0.375000 -0.500000 0.375000
vn -0.0000 1.0000 -0.0000
vn -1.0000 -0.0000 -0.0000
vn -0.0000 0.7071 -0.7071
vn -0.0000 0.7071 0.7071
vn -0.0000 -0.0000 1.0000
vn -0.0000 -0.0000 -1.0000
vn -0.0000 -0.7071 -0.7071
vn 0.7071 -0.0000 0.7071
vn -0.0000 -0.7071 0.7071
vn -0.0000 -1.0000 -0.0000
vn -0.7071 -0.0000 0.7071
vn -0.7071 -0.0000 -0.7071
vn 1.0000 -0.0000 -0.0000
vn 0.7071 -0.0000 -0.7071
vn 0.5774 -0.5774 -0.5774
vn 0.5774 -0.5774 0.5774
vn 0.7071 -0.7071 -0.0000
vt 0.304348 0.652174
vt 0.347826 0.652174
vt 0.347826 0.913043
vt 0.304348 0.913043
vt 0.913043 -0.000000
vt 0.956522 0.043478
vt 0.869565 0.043478
vt 0.913043 0.347826
vt 0.869565 0.304348
vt 0.956522 0.304348
vt 0.434783 0.913043
vt 0.478261 0.652174
vt 0.478261 0.913043
vt 0.869565 0.347826
vt 0.869565 -0.000000
vt 0.434783 0.652174
vt 0.913043 0.260870
vt 0.913043 0.086957
vt 0.304348 0.347826
vt 0.260870 0.391304
vt 0.260870 0.652174
vt 0.695652 0.000000
vt 0.695652 0.304348
vt 0.652174 0.260870
vt 0.391304 0.652174
vt 0.434783 0.652174
vt 0.391304 0.913043
vt 0.869565 0.304348
vt 0.869565 -0.000000
vt 0.565217 0.347826
vt 0.608696 0.347826
vt 0.565217 0.608696
vt 0.608696 0.652174
vt 0.347826 0.260870
vt 0.608696 0.260870
vt 0.347826 0.304348
vt 0.652174 0.304348
vt 0.347826 0.347826
vt 0.304348 0.043478
vt 0.000000 0.043478
vt 0.000000 0.000000
vt 0.913043 0.347826
vt 0.913043 0.391304
vt 0.608696 0.347826
vt 0.652174 0.347826
vt 0.913043 0.652174
vt 0.608696 0.391304
vt 0.608696 0.652174
vt 0.478261 0.652174
vt 0.521739 0.652174
vt 0.521739 0.913043
vt 0.521739 0.652174
vt 0.565217 0.913043
vt 0.565217 0.652174
vt 0.173913 0.652174
vt 0.000000 0.956522
vt 0.000000 0.652174
vt 0.173913 0.956522
vt 0.347826 0.652174
vt 0.347826 0.956522
vt 0.391304 0.913043
vt -0.000000 0.347826
vt -0.000000 0.391304
vt 0.304348 0.304348
vt -0.000000 0.304348
vt 0.608696 0.000000
vt 0.652174 0.000000
vt 0.304348 0.608696
vt -0.000000 0.347826
vt 0.304348 0.347826
vt 0.304348 0.000000
vt 0.173913 1.000000
vt 0.217391 1.000000
vt 0.260870 0.956522
vt 0.217391 0.913043
vt 0.260870 0.695652
vt 0.217391 0.739130
vt 0.173913 0.695652
vt 0.217391 0.652174
vt 0.173913 0.652174
vt 0.347826 0.043478
s 0
usemtl ConveyorMtl
f 8/1/1 2/2/1 1/3/1
f 5/4/1 8/1/1 1/3/1
f 13/5/2 14/6/2 11/7/2
f 17/8/2 8/9/2 16/10/2
f 3/11/1 11/12/1 10/13/1
f 2/14/2 8/9/2 17/8/2
f 11/7/2 4/15/2 13/5/2
f 11/12/1 3/11/1 4/16/1
f 8/9/2 7/17/2 16/10/2
f 11/7/2 14/6/2 12/18/2
f 14/6/2 16/10/2 12/18/2
f 12/18/2 16/10/2 7/17/2
f 6/19/3 7/1/3 5/20/3
f 8/1/3 5/4/3 7/21/3
f 12/22/4 9/23/4 10/24/4
f 11/25/4 12/26/4 10/27/4
f 6/28/1 9/23/1 12/22/1
f 7/29/1 6/28/1 12/22/1
f 2/30/5 17/31/5 1/32/5
f 1/32/5 17/31/5 18/33/5
f 4/34/6 3/35/6 13/36/6
f 15/37/6 13/36/6 3/35/6
f 13/36/7 15/37/7 14/38/7
f 30/39/8 28/40/8 27/41/8
f 17/42/9 16/43/9 18/44/9
f 14/38/7 15/37/7 31/45/7
f 14/46/10 32/47/10 16/43/10
f 32/47/10 14/46/10 31/48/10
f 24/49/2 20/50/2 10/13/2
f 10/13/2 20/50/2 3/51/2
f 19/52/2 5/53/2 1/51/2
f 19/52/2 21/54/2 5/53/2
f 23/55/2 6/56/2 22/57/2
f 6/56/2 23/55/2 9/58/2
f 23/59/11 24/25/11 9/60/11
f 10/61/11 9/60/11 24/25/11
f 22/62/12 6/19/12 21/63/12
f 5/20/12 21/63/12 6/19/12
f 30/39/13 29/64/13 25/65/13
f 25/65/13 28/40/13 30/39/13
f 20/66/6 26/67/6 3/35/6
f 3/35/6 26/67/6 15/37/6
f 27/1/5 19/68/5 1/32/5
f 1/32/5 18/33/5 27/1/5
f 18/44/9 16/43/9 32/47/9
f 29/64/14 26/69/14 25/65/14
f 26/69/14 29/64/14 15/70/14
f 30/39/8 27/41/8 18/71/8
f 20/72/1 24/58/1 26/73/1
f 26/73/1 24/58/1 25/74/1
f 24/58/1 23/75/1 25/74/1
f 25/74/1 23/75/1 28/76/1
f 23/75/1 22/77/1 28/76/1
f 21/78/1 28/76/1 22/77/1
f 28/76/1 21/78/1 27/79/1
f 21/78/1 19/80/1 27/79/1
f 15/70/15 29/64/15 31/36/15
f 18/71/16 32/81/16 30/39/16
f 32/81/17 31/36/17 30/39/17
f 30/39/17 31/36/17 29/64/17
