# Blender 5.1.2
# www.blender.org
mtllib ConveyorStraight.mtl
o Cube
v -0.500000 -0.250000 0.500000
v -0.500000 -0.250000 -0.500000
v 0.500000 -0.250000 0.500000
v 0.500000 -0.250000 -0.500000
v -0.375000 -0.250000 0.500000
v -0.250000 -0.375000 0.500000
v -0.250000 -0.375000 -0.500000
v -0.375000 -0.250000 -0.500000
v 0.250000 -0.375000 0.500000
v 0.375000 -0.250000 0.500000
v 0.375000 -0.250000 -0.500000
v 0.250000 -0.375000 -0.500000
v 0.500000 -0.375000 -0.500000
v 0.375000 -0.500000 -0.500000
v 0.375000 -0.500000 0.500000
v 0.500000 -0.375000 0.500000
v -0.375000 -0.500000 -0.500000
v -0.500000 -0.375000 -0.500000
v -0.500000 -0.375000 0.500000
v -0.375000 -0.500000 0.500000
vn -0.0000 -0.0000 1.0000
vn -0.0000 1.0000 -0.0000
vn -0.0000 -0.0000 -1.0000
vn 0.7071 0.7071 -0.0000
vn -0.7071 0.7071 -0.0000
vn -1.0000 -0.0000 -0.0000
vn 1.0000 -0.0000 -0.0000
vn 0.7071 -0.7071 -0.0000
vn -0.7071 -0.7071 -0.0000
vn -0.0000 -1.0000 -0.0000
vt 0.500000 0.437500
vt 0.562500 0.375000
vt 0.625000 0.437500
vt 0.500000 0.062500
vt 0.625000 0.062500
vt 0.562500 0.125000
vt 0.562500 0.000000
vt 0.562500 0.500000
vt 0.500000 0.437500
vt 0.500000 0.500000
vt 0.000000 0.500000
vt 0.000000 0.437500
vt 0.562500 0.500000
vt 0.625000 0.562500
vt 0.500000 0.562500
vt 0.562500 1.000000
vt 0.500000 0.937500
vt 0.625000 0.937500
vt 0.000000 0.000000
vt 0.500000 0.062500
vt 0.000000 0.062500
vt 0.500000 1.000000
vt 0.500000 0.500000
vt 0.500000 0.500000
vt 0.500000 0.000000
vt 0.500000 0.000000
vt 0.562500 0.875000
vt 0.562500 0.625000
vt 0.000000 0.375000
vt 0.500000 0.375000
vt 0.500000 0.125000
vt 0.000000 0.125000
vt 0.625000 0.000000
vt 0.687500 0.000000
vt 0.625000 0.500000
vt 0.687500 0.500000
vt 0.625000 1.000000
vt 0.625000 0.500000
vt 0.687500 1.000000
vt 0.687500 0.500000
vt 0.500000 1.000000
vt 0.000000 1.000000
vt 0.500000 0.937500
vt 0.000000 0.937500
vt 0.500000 0.500000
vt 0.500000 0.562500
vt 0.000000 0.500000
vt 0.000000 0.562500
s 0
usemtl ConveyorMtl
f 10/1/1 9/2/1 15/3/1
f 5/4/1 20/5/1 6/6/1
f 20/5/1 5/4/1 19/7/1
f 16/8/1 10/1/1 15/3/1
f 8/9/2 2/10/2 1/11/2
f 5/12/2 8/9/2 1/11/2
f 13/13/3 14/14/3 11/15/3
f 18/16/3 8/17/3 17/18/3
f 3/19/2 11/20/2 10/21/2
f 2/22/3 8/17/3 18/16/3
f 11/15/3 4/23/3 13/13/3
f 10/1/1 16/8/1 3/24/1
f 11/20/2 3/19/2 4/25/2
f 1/26/1 19/7/1 5/4/1
f 6/6/1 20/5/1 9/2/1
f 20/5/1 15/3/1 9/2/1
f 8/17/3 7/27/3 17/18/3
f 11/15/3 14/14/3 12/28/3
f 14/14/3 17/18/3 12/28/3
f 12/28/3 17/18/3 7/27/3
f 6/29/4 7/30/4 5/12/4
f 8/9/4 5/12/4 7/30/4
f 12/31/5 9/32/5 10/21/5
f 11/20/5 12/31/5 10/21/5
f 6/29/2 9/32/2 12/31/2
f 7/30/2 6/29/2 12/31/2
f 2/33/6 18/34/6 1/35/6
f 1/35/6 18/34/6 19/36/6
f 4/37/7 3/38/7 13/39/7
f 16/40/7 13/39/7 3/38/7
f 13/41/8 16/42/8 14/43/8
f 16/42/8 15/44/8 14/43/8
f 18/45/9 17/46/9 19/47/9
f 19/47/9 17/46/9 20/48/9
f 20/48/10 17/46/10 15/44/10
f 17/46/10 14/43/10 15/44/10
